PathFileType	4	(X/Y/Z)	1_1_tpose_p0_0-28.trc
DataRate	CameraRate	NumFrames	NumMarkers	Units	OrigDataRate	OrigDataStartFrame	OrigNumFrames
60.0	60.0	7	27	m	60.0	0	29
Frame#	Time	RHip			RKnee			RAnkle			RBigToe			RSmallToe			RHeel			LHip			LKnee			LAnkle			LBigToe			LSmallToe			LHeel			Neck			Head			Nose			RShoulder			RElbow			RWrist			RThumb			RIndex			RPinky			LShoulder			LElbow			LWrist			LThumb			LIndex			LPinky			
		X1	Y1	Z1	X2	Y2	Z2	X3	Y3	Z3	X4	Y4	Z4	X5	Y5	Z5	X6	Y6	Z6	X7	Y7	Z7	X8	Y8	Z8	X9	Y9	Z9	X10	Y10	Z10	X11	Y11	Z11	X12	Y12	Z12	X13	Y13	Z13	X14	Y14	Z14	X15	Y15	Z15	X16	Y16	Z16	X17	Y17	Z17	X18	Y18	Z18	X19	Y19	Z19	X20	Y20	Z20	X21	Y21	Z21	X22	Y22	Z22	X23	Y23	Z23	X24	Y24	Z24	X25	Y25	Z25	X26	Y26	Z26	X27	Y27	Z27	
0	0.0	0.3696415651456782	0.22606788184657306	1.0552043218176763	0.3817909832518391	0.2996735996225273	1.5468194642083921	0.3788218727530424	0.3384934435098849	1.9485814937808992	0.33449290824782096	0.15618732086282977	1.995065445623905	0.40673709810134423	0.1791799401243987	1.991819254026453	0.3588373157381712	0.44936076847898393	2.034641527277386	0.14613425992972046	0.21342012340548672	1.0539764299651386	0.16401977877576926	0.2732538968508614	1.5180429877455202	0.20884752839256976	0.4259904729797096	1.976837894574926	0.17848050610537583	0.18166907480761318	2.0163243904925814	0.12947287806773627	0.23587093548581078	1.9942313331916173	0.21738062452946094	0.450896638531969	2.042849359009068	0.25696526005637943	0.13710353883310583	0.3823999531555834	0.253927388038716	0.09645948755983647	0.14522904263804629	0.25100573870980436	0.05628871723839619	0.27300979928327634	0.4493116112733352	0.14270143980168068	0.47213861003895824	0.7407065285918235	0.18605093919132543	0.4548140703734532	1.0054175341020672	0.14981340305998775	0.4148533198246583	1.1051233777770066	0.1278810416671887	0.41636714633940525	1.1112380757471156	0.13630813008548712	0.41924673073515456	1.091983683176217	0.19383265484719192	0.46297687815456984	0.055783301669046284	0.14604919178944611	0.46617343078270007	-0.21283091385512368	0.1894370144356296	0.47237904131992986	-0.4807226268128572	0.17781832178673387	0.4272119414736578	-0.5732846489885174	0.16339969613345698	0.4371641106510921	-0.5961970519742885	0.19006861839613073	0.4277649140245181	-0.5614397991146649	0.14481134305075352	0.4329713520379242
1	0.016666666666666666	0.3738061498235236	0.2101815939878451	1.0553032929347919	0.3827373882498527	0.29653897860737394	1.5534201729257204	0.38353547950723155	0.3392349146831087	1.9531391936061462	0.33489805897696184	0.15787071537503275	1.991226308924301	0.41026027857036235	0.19105854608188555	1.997159423703407	0.35839499993220053	0.4464338478980857	2.0314339426556054	0.15080356243237186	0.20044766112038406	1.0505296556786794	0.16896073378744997	0.2742197078201512	1.5226119479137197	0.20559282798047226	0.41479572606812487	1.9668096521005698	0.1721340034000019	0.20693084418290555	2.0274397036931218	0.12942091222380764	0.23609969705186462	1.994232075453297	0.21746929698648956	0.4507042290593073	2.0430427635669126	0.25697528705158834	0.13716985534085954	0.38246828935530763	0.2537173984528976	0.09625083266454747	0.14520163887666157	0.2476552968175315	0.04652448290553387	0.2738075423795046	0.4495013036195496	0.14277330383466863	0.4721844610786675	0.7400685428212351	0.18440148606921744	0.45136592320406627	1.0049454385806946	0.16447389487917383	0.4154567904515951	1.1051049822414356	0.14341064391076752	0.41757044365289087	1.1186052352320668	0.16395358643232238	0.42532255310269595	1.0864805727626667	0.1850631405688586	0.4629955174708886	0.051684747591931694	0.14423237450974402	0.4664191517928048	-0.2183058616598011	0.2001143837289187	0.47320547731109996	-0.4805940498670079	0.17600632487390797	0.4235433271797965	-0.5824138021490398	0.1689194888637767	0.4379727773421048	-0.602330012681196	0.1878579800528675	0.4288864598884943	-0.5665252209688645	0.15216568401611852	0.43970652679842087
2	0.03333333333333333	0.37391054238449695	0.20990566465450103	1.0552374518747007	0.3868367461314068	0.28332481490797773	1.5434744525119275	0.38819135533597066	0.33929502139111856	1.9569429939436482	0.3392760343321728	0.16027276929634546	1.9920808884153498	0.40636960824018004	0.1796935985643852	1.9910804559282957	0.35844926539301036	0.4468559737715719	2.0306049489477513	0.15084742353330408	0.19998253136720381	1.0504298764478037	0.16856948264375052	0.2705327339592577	1.5208850915681769	0.20854603414361975	0.42346270783915	1.9707478092809858	0.16925803961780744	0.19456853758221146	2.0207426699171935	0.12446708002518725	0.24987756988201892	2.002150860723311	0.22004215035893412	0.4616873414021605	2.0396589393322246	0.2569780797542077	0.13721567744362032	0.38246886035719535	0.24943295930993722	0.09443783708212641	0.14551093881262078	0.24412513759576354	0.044611296967897306	0.2740211425850751	0.44649799468232876	0.15515130867814267	0.47303396409584864	0.7399328146662334	0.18438156086281451	0.45139511151924233	1.0053568578359706	0.15011713948875596	0.4148995273259149	1.1051765305456143	0.1443601163890745	0.4139175605634261	1.1182800659596366	0.1636313231869668	0.4252820292678665	1.0863831725759407	0.1864142956172099	0.46257359684440946	0.051656668323545984	0.1442002938205423	0.46641816325499896	-0.2183574786423942	0.20013920299462284	0.47315781546485275	-0.4806347778220396	0.17612950922471451	0.4234984343951649	-0.5795909722109267	0.17334801122903876	0.4378919197271799	-0.6023944644640242	0.18844864091804572	0.4290355944415206	-0.5661468744869205	0.15076987784232276	0.4361453177931618
3	0.05	0.37378537505913834	0.20990921410711427	1.0553274058678883	0.38277022121832105	0.29798513288568973	1.5497204935913353	0.3878338345137433	0.3418482764540068	1.9538264338974727	0.3392853363734442	0.16035278780443193	1.9922509936713626	0.4062955569122386	0.17969779443812917	1.991191994464235	0.35850519027751343	0.4472236053698737	2.0306240796368655	0.15066471326648118	0.20007251316935196	1.0506441977247853	0.16856825025886543	0.27057160437181876	1.5209632817749166	0.20387140366741696	0.43927933365835903	1.979229120857191	0.17366718600078157	0.19598713829035666	2.024799994003434	0.1245112678078333	0.25005386687775755	2.002356160875016	0.22153966750631962	0.46239946900156137	2.0479110375299943	0.2569946391525048	0.13708157144079758	0.3824657247448476	0.25380512622155876	0.0948219450141113	0.1422857788491982	0.24411499554225533	0.04451605171693151	0.2740024018798276	0.4494982537133685	0.1427035143005837	0.4721505243346515	0.7398055580783345	0.1843217545681966	0.45142522796963913	1.0047360100258593	0.1644871442689385	0.41541369784472487	1.1103238100633546	0.15416860751966377	0.41648019202250147	1.1184016766927491	0.16443191750187233	0.4253635529827533	1.0862756644255174	0.18634262411087785	0.46254818604475795	0.051662033472247744	0.14407616555620895	0.46637353781528534	-0.21285898562908445	0.189247566986936	0.47228684035601703	-0.48052539710473563	0.1758604645472817	0.42346940335689337	-0.5824489093712557	0.16854697150180684	0.438100883606621	-0.6023446759326373	0.18800139323967383	0.4289423106856565	-0.5661503904411236	0.1504544997054853	0.4361858828434451
4	0.06666666666666667	0.37749224649860075	0.19655348893482694	1.0518920746314613	0.3868205210387854	0.28166577567383516	1.547148179541999	0.3883879801491032	0.3397240651045188	1.9568146081492317	0.3392913860036627	0.16026991562651774	1.992037182439847	0.4148351279384603	0.1931212666048809	1.997835395573469	0.3586939280207013	0.4475657341247163	2.03023040460116	0.1507662020249892	0.1996171349609844	1.0505215142334485	0.1644364400126673	0.26923525100374357	1.516579319066358	0.1989490154507935	0.4378377547261901	1.9738602996361136	0.17210985295323095	0.20659232587211981	2.02702877650943	0.12456358824718498	0.2500744915575301	2.0027997587462947	0.22005443365185115	0.46219363150617787	2.0400525657482396	0.2569314329174978	0.13712192676247403	0.38242584698509763	0.2537467408680352	0.09471565292515015	0.14225840654982577	0.24410533263299325	0.04452580315941167	0.2739723173547345	0.4495181011823975	0.14272289654816397	0.4721365973714768	0.7378008977438625	0.19810598735480023	0.452340518521113	1.0006289530803372	0.16445608010890805	0.41569298094890234	1.1115516091134352	0.15534518851637275	0.4227176396446973	1.1196575854242263	0.1665334743991279	0.4281918247211313	1.0862653586227968	0.18621959675239777	0.46275322649525646	0.05166248462118568	0.1440511438277645	0.46635479832841714	-0.21837975239998633	0.2001842554286027	0.47310944117559167	-0.4807062664864049	0.1762659483523471	0.4234578997013071	-0.5824378343370601	0.16866003105501803	0.43809374007478363	-0.6023905766109265	0.18833037021231078	0.42908942018192614	-0.5665932711760913	0.15214416115460197	0.439867537690466
5	0.08333333333333333	0.3772401561624881	0.19835191544999767	1.0485661719672243	0.386791532957265	0.2833217432694614	1.5434542458223657	0.38371308001628984	0.35698817996785537	1.9621292564335313	0.3393315569878494	0.1604745952305254	1.992240087818489	0.41021756175527135	0.19087159698328687	1.9969726461982114	0.35850881692395375	0.4473614306221352	2.0307482417779914	0.14779398193502755	0.18889246834418033	1.0485398015530065	0.16433852271444388	0.2694800885978633	1.5167077245236495	0.19887490922357348	0.4379344452220117	1.9738486354697449	0.1688827920049336	0.19354069413105401	2.0240595703269806	0.12453944983565535	0.24997445403632484	2.002851091318693	0.21533388881044868	0.47923060530418915	2.0490491745086583	0.25691040226311923	0.13711100924567104	0.38239477228627194	0.2486096489536958	0.09493892974003076	0.1396570873404465	0.2441017887598765	0.04455985819703484	0.2739746587041516	0.44947938536336673	0.14267551589592153	0.4721274626412444	0.7396823124431967	0.18410776998506834	0.4515091918455527	1.0004484140764642	0.16409223346421012	0.4157323180824285	1.1108534829786287	0.1544575096968608	0.42012426196352914	1.1182672758389312	0.1653665241272008	0.4255143179630342	1.086215433617966	0.18624338907469848	0.4627487153384266	0.051638905047416306	0.14410648535979537	0.46639125553147087	-0.21841618186605108	0.2003946750156548	0.47303354898633965	-0.48067956510287413	0.17628046822821355	0.42346829301815786	-0.5763236486748402	0.15843794928913707	0.437466771506307	-0.60239705444688	0.18825419809380234	0.4291171271965231	-0.5661917611558469	0.15059845077112557	0.4363105785009139
6	0.1	0.3775172771594148	0.19651045945630974	1.0521686039234595	0.38690086232327314	0.28325648241600904	1.5435455329823509	0.3842052665724464	0.3547200167355729	1.9655764970045848	0.3394867403326456	0.16106146566318813	1.9926995831105496	0.40923359996384356	0.18923095893486866	1.9924998081240572	0.35845907367698826	0.44714685638549745	2.030946924456862	0.15067462754063288	0.19997938905276025	1.0506779411903089	0.1639282993499553	0.2712032713919295	1.5131563142470905	0.1988831524909356	0.4376860336613654	1.9739553572140633	0.17172057739399288	0.2057063903529118	2.0303637488644535	0.12455833237659973	0.2500891364664421	2.002939437228044	0.22002053616793313	0.46202868291245536	2.0399075582961474	0.2569207769460603	0.13712910921379318	0.3824037465814501	0.24947665208200281	0.09307132333554707	0.14258471202946846	0.24760005231524845	0.04645371571180128	0.2737524688416148	0.44950516675932506	0.14267141034562564	0.47209364870710924	0.7402815198607446	0.18546139395751154	0.45481802421284745	1.0008876358814256	0.14963521904095387	0.4151473693211135	1.1107491638236102	0.15519944899854454	0.42026786087887696	1.1179460822833207	0.16590402725215636	0.42559691729381255	1.0830126913617324	0.18396711018482487	0.4662835279255743	0.05163071614453928	0.14411256619381851	0.4663748446250954	-0.21837828780646998	0.20028193494512567	0.4730586374422894	-0.4807253741256844	0.1764596605392582	0.42348324036319956	-0.5824173885175155	0.16871618683214176	0.43811742848455165	-0.602546023215978	0.1883726884760219	0.4291056712317241	-0.5666043917691665	0.1522648284917312	0.43983234195643933
